<svg width="181" height="37" viewBox="0 0 181 37" fill="none" xmlns="http://www.w3.org/2000/svg">
<path d="M15.659 0.443219C10.2384 1.78646 5.21941 5.09289 3.51294 8.60597C1.30456 12.9457 1.70608 14.4955 4.11522 11.3958C6.3236 8.39932 14.1533 5.50619 19.9754 5.50619C25.6971 5.50619 30.9169 7.46938 34.631 10.8791C37.2409 13.1523 37.9435 13.4623 37.4416 12.1191C34.5306 3.74965 24.4925 -1.6233 15.659 0.443219Z" fill="#493E92"/>
<path d="M14.0529 8.19266C14.0529 10.6725 16.5624 12.5324 20.7784 13.2556C26.9017 14.1856 28.8089 15.2188 31.0173 19.0419C32.8241 22.0383 32.8241 22.0383 34.631 19.9718C39.3489 14.5989 31.218 7.5727 20.3769 7.5727C16.8636 7.5727 14.0529 7.88268 14.0529 8.19266Z" fill="#FF2B31"/>
<path d="M7.32742 10.6725C1.50534 14.2889 2.00724 20.3851 8.23085 23.6916C15.3579 27.5146 31.8203 26.378 30.415 22.245C29.2104 18.7319 25.7975 15.9421 21.6819 15.3222C16.7632 14.4955 13.0491 12.2224 13.0491 10.1559C13.0491 8.08934 11.1419 8.19267 7.32742 10.6725Z" fill="#FF2B31"/>
<path d="M56.2128 18.4219C56.2128 26.4814 56.4136 27.2047 58.2205 27.2047C60.0273 27.2047 60.2281 26.4814 60.2281 19.9718V12.739H63.7414H67.2547V19.9718C67.2547 26.5847 67.4555 27.2047 69.2623 27.2047C71.2699 27.2047 71.3703 26.688 71.0692 18.6286L70.768 10.1559L63.5406 9.84589L56.2128 9.53592V18.4219Z" fill="#FF2B31"/>
<path d="M74.2814 18.3186C74.2814 26.4814 74.4821 27.2047 76.289 27.2047C77.8951 27.2047 78.2966 26.4814 78.2966 24.1049C78.2966 21.3151 78.5977 21.0051 81.308 21.0051C84.4198 21.0051 88.3347 17.9053 88.3347 15.5288C88.3347 12.2224 85.6244 10.3625 79.9027 9.84589L74.2814 9.43259V18.3186ZM84.0183 14.3922C84.4198 15.5288 83.9179 16.6654 82.8137 17.492C79.8023 19.7652 78.2966 19.2486 78.2966 15.8388C78.2966 13.2556 78.6981 12.739 80.8061 12.739C82.3118 12.739 83.6168 13.4623 84.0183 14.3922Z" fill="#FF2B31"/>
<path d="M93.2533 11.6024C91.3461 13.1523 90.8442 14.5989 90.8442 18.4219C90.8442 22.245 91.3461 23.6916 93.2533 25.2415C98.8747 29.9945 107.407 25.8614 107.407 18.4219C107.407 10.9825 98.8747 6.84944 93.2533 11.6024ZM102.79 14.3922C104.697 19.4552 102.99 24.1049 99.2762 24.1049C95.0602 24.1049 92.4503 17.182 95.5621 13.9789C97.2686 12.2224 102.087 12.429 102.79 14.3922Z" fill="#FF2B31"/>
<path d="M110.418 18.3186C110.418 25.5514 110.72 27.2047 111.924 27.2047C113.129 27.2047 113.43 25.7581 113.53 20.6951C113.53 16.1488 113.831 14.9089 114.434 16.3554C114.936 17.492 116.441 19.7652 117.746 21.5217L120.256 24.5182L123.368 19.4552L126.479 14.3922V20.7984C126.479 25.7581 126.78 27.2047 127.985 27.2047C129.19 27.2047 129.491 25.5514 129.491 18.4219C129.491 7.8827 128.286 7.15942 123.468 14.8055L120.256 19.9718L117.044 15.0122C115.237 12.3257 113.028 10.0525 112.125 9.84589C110.619 9.53591 110.418 10.6725 110.418 18.3186Z" fill="#FF2B31"/>
<path d="M138.625 11.9124C138.124 13.2556 136.517 16.9754 135.112 20.3851C132 27.5146 132.101 27.2047 134.008 27.2047C134.811 27.2047 135.915 26.2747 136.517 25.1381C137.22 23.6916 138.625 23.0716 140.934 23.0716C143.444 23.0716 144.447 23.5882 144.849 25.1381C145.15 26.378 146.254 27.2047 147.359 27.2047C149.266 27.2047 149.165 26.688 145.752 18.4219C142.038 9.53591 140.131 7.77937 138.625 11.9124ZM142.44 19.6619C142.54 20.3851 141.637 21.0051 140.533 21.0051C138.224 21.0051 138.224 21.0051 139.629 17.182C140.633 14.4956 140.834 14.3922 141.536 16.3554C142.038 17.492 142.44 19.0419 142.44 19.6619Z" fill="#FF2B31"/>
<path d="M151.575 18.3186C151.575 26.4814 151.775 27.2047 153.582 27.2047C155.188 27.2047 155.59 26.4814 155.59 23.5882C155.59 21.6251 155.791 19.9718 156.092 19.9718C156.393 19.9718 157.999 21.6251 159.705 23.5882C161.412 25.5514 163.721 27.2047 164.825 27.2047C166.632 27.2047 166.431 26.688 163.118 22.555L159.404 17.9053L162.516 14.1856C166.029 10.1559 166.23 9.63924 164.122 9.63924C163.319 9.63924 161.211 11.2925 159.404 13.359L156.092 17.0787L155.59 13.669C155.289 11.3958 154.486 10.0525 153.381 9.84589C151.775 9.53592 151.575 10.4658 151.575 18.3186Z" fill="#FF2B31"/>
<path d="M170.145 12.2223C166.732 15.6321 166.732 21.2117 170.145 24.7248C172.153 26.7913 173.458 27.3079 176.971 26.998C182.09 26.5846 182.592 24.7248 177.674 24.3115C173.056 23.7948 171.651 22.4516 171.651 18.5252C171.651 14.2889 173.257 12.739 177.372 12.739C179.681 12.739 180.685 12.2223 180.685 11.1891C180.685 8.50261 173.056 9.22589 170.145 12.2223Z" fill="#FF2B31"/>
<path d="M1.00343 21.935C3.81409 32.4742 14.5548 39.0871 24.3921 36.4006C31.7199 34.4374 36.0363 30.0977 39.2485 21.315C40.1519 18.8352 39.8508 18.9385 35.9359 22.6583C33.326 25.1381 29.7123 27.3079 26.8013 28.1346C17.9678 30.7177 6.72514 27.6179 2.10762 21.315L0.100006 18.4219L1.00343 21.935Z" fill="#493E92"/>
</svg>
